<svg xmlns="http://www.w3.org/2000/svg" width="1200" height="400" viewBox="0 0 1200 400">
  <defs>
    <linearGradient id="bg" x1="0%" y1="0%" x2="100%" y2="100%">
      <stop offset="0%" style="stop-color:#0a0a1a;stop-opacity:1"/>
      <stop offset="40%" style="stop-color:#121233;stop-opacity:1"/>
      <stop offset="100%" style="stop-color:#0a0a1a;stop-opacity:1"/>
    </linearGradient>
    <linearGradient id="accent1" x1="0%" y1="0%" x2="0%" y2="100%">
      <stop offset="0%" style="stop-color:#7B68EE;stop-opacity:1"/>
      <stop offset="100%" style="stop-color:#4158D0;stop-opacity:1"/>
    </linearGradient>
    <linearGradient id="accent2" x1="0%" y1="0%" x2="0%" y2="100%">
      <stop offset="0%" style="stop-color:#F7DF1E;stop-opacity:1"/>
      <stop offset="100%" style="stop-color:#E8C800;stop-opacity:1"/>
    </linearGradient>
    <linearGradient id="accent3" x1="0%" y1="0%" x2="0%" y2="100%">
      <stop offset="0%" style="stop-color:#43E97B;stop-opacity:1"/>
      <stop offset="100%" style="stop-color:#38F9D7;stop-opacity:1"/>
    </linearGradient>
    <linearGradient id="accent4" x1="0%" y1="0%" x2="0%" y2="100%">
      <stop offset="0%" style="stop-color:#3178C6;stop-opacity:1"/>
      <stop offset="100%" style="stop-color:#235A9E;stop-opacity:1"/>
    </linearGradient>
    <linearGradient id="titleGrad" x1="0%" y1="0%" x2="100%" y2="0%">
      <stop offset="0%" style="stop-color:#F7DF1E;stop-opacity:1"/>
      <stop offset="100%" style="stop-color:#43E97B;stop-opacity:1"/>
    </linearGradient>
  </defs>

  <!-- Background -->
  <rect width="1200" height="400" fill="url(#bg)"/>

  <!-- Grid pattern overlay -->
  <g opacity="0.04">
    <line x1="0" y1="0" x2="0" y2="400" stroke="#fff" stroke-width="0.5"/>
    <line x1="40" y1="0" x2="40" y2="400" stroke="#fff" stroke-width="0.5"/>
    <line x1="80" y1="0" x2="80" y2="400" stroke="#fff" stroke-width="0.5"/>
    <line x1="120" y1="0" x2="120" y2="400" stroke="#fff" stroke-width="0.5"/>
    <line x1="160" y1="0" x2="160" y2="400" stroke="#fff" stroke-width="0.5"/>
    <line x1="200" y1="0" x2="200" y2="400" stroke="#fff" stroke-width="0.5"/>
    <line x1="240" y1="0" x2="240" y2="400" stroke="#fff" stroke-width="0.5"/>
    <line x1="280" y1="0" x2="280" y2="400" stroke="#fff" stroke-width="0.5"/>
    <line x1="320" y1="0" x2="320" y2="400" stroke="#fff" stroke-width="0.5"/>
    <line x1="360" y1="0" x2="360" y2="400" stroke="#fff" stroke-width="0.5"/>
    <line x1="400" y1="0" x2="400" y2="400" stroke="#fff" stroke-width="0.5"/>
    <line x1="440" y1="0" x2="440" y2="400" stroke="#fff" stroke-width="0.5"/>
    <line x1="480" y1="0" x2="480" y2="400" stroke="#fff" stroke-width="0.5"/>
    <line x1="520" y1="0" x2="520" y2="400" stroke="#fff" stroke-width="0.5"/>
    <line x1="560" y1="0" x2="560" y2="400" stroke="#fff" stroke-width="0.5"/>
    <line x1="600" y1="0" x2="600" y2="400" stroke="#fff" stroke-width="0.5"/>
    <line x1="640" y1="0" x2="640" y2="400" stroke="#fff" stroke-width="0.5"/>
    <line x1="680" y1="0" x2="680" y2="400" stroke="#fff" stroke-width="0.5"/>
    <line x1="720" y1="0" x2="720" y2="400" stroke="#fff" stroke-width="0.5"/>
    <line x1="760" y1="0" x2="760" y2="400" stroke="#fff" stroke-width="0.5"/>
    <line x1="800" y1="0" x2="800" y2="400" stroke="#fff" stroke-width="0.5"/>
    <line x1="840" y1="0" x2="840" y2="400" stroke="#fff" stroke-width="0.5"/>
    <line x1="880" y1="0" x2="880" y2="400" stroke="#fff" stroke-width="0.5"/>
    <line x1="920" y1="0" x2="920" y2="400" stroke="#fff" stroke-width="0.5"/>
    <line x1="960" y1="0" x2="960" y2="400" stroke="#fff" stroke-width="0.5"/>
    <line x1="1000" y1="0" x2="1000" y2="400" stroke="#fff" stroke-width="0.5"/>
    <line x1="1040" y1="0" x2="1040" y2="400" stroke="#fff" stroke-width="0.5"/>
    <line x1="1080" y1="0" x2="1080" y2="400" stroke="#fff" stroke-width="0.5"/>
    <line x1="1120" y1="0" x2="1120" y2="400" stroke="#fff" stroke-width="0.5"/>
    <line x1="1160" y1="0" x2="1160" y2="400" stroke="#fff" stroke-width="0.5"/>
    <line x1="0" y1="40" x2="1200" y2="40" stroke="#fff" stroke-width="0.5"/>
    <line x1="0" y1="80" x2="1200" y2="80" stroke="#fff" stroke-width="0.5"/>
    <line x1="0" y1="120" x2="1200" y2="120" stroke="#fff" stroke-width="0.5"/>
    <line x1="0" y1="160" x2="1200" y2="160" stroke="#fff" stroke-width="0.5"/>
    <line x1="0" y1="200" x2="1200" y2="200" stroke="#fff" stroke-width="0.5"/>
    <line x1="0" y1="240" x2="1200" y2="240" stroke="#fff" stroke-width="0.5"/>
    <line x1="0" y1="280" x2="1200" y2="280" stroke="#fff" stroke-width="0.5"/>
    <line x1="0" y1="320" x2="1200" y2="320" stroke="#fff" stroke-width="0.5"/>
    <line x1="0" y1="360" x2="1200" y2="360" stroke="#fff" stroke-width="0.5"/>
  </g>

  <!-- Decorative quest nodes (right side) — representing the learning journey -->
  <!-- Node 1: Local AI -->
  <circle cx="920" cy="65" r="22" fill="none" stroke="#7B68EE" stroke-width="2" opacity="0.6"/>
  <circle cx="920" cy="65" r="8" fill="#7B68EE" opacity="0.8"/>
  <text x="920" y="69" font-family="'Segoe UI',Roboto,sans-serif" font-size="8" fill="#fff" text-anchor="middle" font-weight="bold">1</text>
  <!-- Connector 1→2 -->
  <line x1="938" y1="78" x2="988" y2="112" stroke="#7B68EE" stroke-width="1.5" opacity="0.3" stroke-dasharray="4,3"/>
  <!-- Node 2: Foundry Models -->
  <circle cx="1010" cy="130" r="22" fill="none" stroke="#E84393" stroke-width="2" opacity="0.6"/>
  <circle cx="1010" cy="130" r="8" fill="#E84393" opacity="0.8"/>
  <text x="1010" y="134" font-family="'Segoe UI',Roboto,sans-serif" font-size="8" fill="#fff" text-anchor="middle" font-weight="bold">2</text>
  <!-- Connector 2→3 -->
  <line x1="993" y1="146" x2="940" y2="182" stroke="#E84393" stroke-width="1.5" opacity="0.3" stroke-dasharray="4,3"/>
  <!-- Node 3: RAG -->
  <circle cx="925" cy="200" r="22" fill="none" stroke="#43E97B" stroke-width="2" opacity="0.6"/>
  <circle cx="925" cy="200" r="8" fill="#43E97B" opacity="0.8"/>
  <text x="925" y="204" font-family="'Segoe UI',Roboto,sans-serif" font-size="8" fill="#fff" text-anchor="middle" font-weight="bold">3</text>
  <!-- Connector 3→4 -->
  <line x1="943" y1="214" x2="993" y2="250" stroke="#43E97B" stroke-width="1.5" opacity="0.3" stroke-dasharray="4,3"/>
  <!-- Node 4: Agent Builder -->
  <circle cx="1015" cy="268" r="22" fill="none" stroke="#3178C6" stroke-width="2" opacity="0.6"/>
  <circle cx="1015" cy="268" r="8" fill="#3178C6" opacity="0.8"/>
  <text x="1015" y="272" font-family="'Segoe UI',Roboto,sans-serif" font-size="8" fill="#fff" text-anchor="middle" font-weight="bold">4</text>
  <!-- Connector 4→5 -->
  <line x1="998" y1="284" x2="945" y2="318" stroke="#3178C6" stroke-width="1.5" opacity="0.3" stroke-dasharray="4,3"/>
  <!-- Node 5: Agent Orchestration -->
  <circle cx="930" cy="335" r="22" fill="none" stroke="#F7DF1E" stroke-width="2" opacity="0.6"/>
  <circle cx="930" cy="335" r="8" fill="#F7DF1E" opacity="0.8"/>
  <text x="930" y="339" font-family="'Segoe UI',Roboto,sans-serif" font-size="8" fill="#1a1a1a" text-anchor="middle" font-weight="bold">5</text>

  <!-- Quest labels -->
  <text x="950" y="58" font-family="'Segoe UI',Roboto,sans-serif" font-size="10" fill="#7B68EE" opacity="0.7">Local AI</text>
  <text x="1040" y="124" font-family="'Segoe UI',Roboto,sans-serif" font-size="10" fill="#E84393" opacity="0.7">Foundry Models</text>
  <text x="955" y="194" font-family="'Segoe UI',Roboto,sans-serif" font-size="10" fill="#43E97B" opacity="0.7">RAG</text>
  <text x="1045" y="262" font-family="'Segoe UI',Roboto,sans-serif" font-size="10" fill="#3178C6" opacity="0.7">Agent Builder</text>
  <text x="960" y="330" font-family="'Segoe UI',Roboto,sans-serif" font-size="10" fill="#F7DF1E" opacity="0.7">Agent Orchestration</text>

  <!-- Decorative accent bars (far right) -->
  <rect x="1120" y="100" width="14" height="140" rx="7" fill="url(#accent1)" opacity="0.5"/>
  <rect x="1145" y="140" width="14" height="160" rx="7" fill="url(#accent3)" opacity="0.5"/>
  <rect x="1170" y="80" width="14" height="120" rx="7" fill="url(#accent2)" opacity="0.5"/>

  <!-- Decorative dot matrix (top right corner) -->
  <rect x="1080" y="12" width="90" height="45" rx="6" fill="#3178C6" opacity="0.1"/>
  <g fill="#3178C6" opacity="0.35">
    <circle cx="1093" cy="22" r="1.5"/>
    <circle cx="1106" cy="22" r="1.5"/>
    <circle cx="1119" cy="22" r="1.5"/>
    <circle cx="1132" cy="22" r="1.5"/>
    <circle cx="1145" cy="22" r="1.5"/>
    <circle cx="1158" cy="22" r="1.5"/>
    <circle cx="1093" cy="34" r="1.5"/>
    <circle cx="1106" cy="34" r="1.5"/>
    <circle cx="1119" cy="34" r="1.5"/>
    <circle cx="1132" cy="34" r="1.5"/>
    <circle cx="1145" cy="34" r="1.5"/>
    <circle cx="1158" cy="34" r="1.5"/>
    <circle cx="1093" cy="46" r="1.5"/>
    <circle cx="1106" cy="46" r="1.5"/>
    <circle cx="1119" cy="46" r="1.5"/>
    <circle cx="1132" cy="46" r="1.5"/>
    <circle cx="1145" cy="46" r="1.5"/>
    <circle cx="1158" cy="46" r="1.5"/>
  </g>

  <!-- AI sparkle cluster (decorative, mid-right) -->
  <g opacity="0.2">
    <path d="M1090 260 L1092 266 L1098 268 L1092 270 L1090 276 L1088 270 L1082 268 L1088 266 Z" fill="#9B59B6"/>
    <path d="M1110 290 L1111.2 294 L1115 295.2 L1111.2 296.4 L1110 300 L1108.8 296.4 L1105 295.2 L1108.8 294 Z" fill="#E84393"/>
    <path d="M1075 285 L1076 288 L1079 289 L1076 290 L1075 293 L1074 290 L1071 289 L1074 288 Z" fill="#43E97B"/>
  </g>

  <!-- Microsoft logo area (top left) -->
  <g transform="translate(60,30)">
    <rect x="0" y="0" width="10" height="10" fill="#F25022"/>
    <rect x="12" y="0" width="10" height="10" fill="#7FBA00"/>
    <rect x="0" y="12" width="10" height="10" fill="#00A4EF"/>
    <rect x="12" y="12" width="10" height="10" fill="#FFB900"/>
    <text x="32" y="19" font-family="'Segoe UI',Roboto,sans-serif" font-size="16" fill="#fff" opacity="0.9">Microsoft</text>
  </g>

  <!-- Language badges (below Microsoft logo) -->
  <g transform="translate(60,72)">
    <!-- JS badge -->
    <rect x="0" y="0" width="40" height="26" rx="4" fill="#F7DF1E"/>
    <text x="20" y="18" font-family="'Segoe UI',Roboto,sans-serif" font-size="12" font-weight="bold" fill="#323330" text-anchor="middle">JS</text>
    <!-- TS badge -->
    <rect x="48" y="0" width="40" height="26" rx="4" fill="#3178C6"/>
    <text x="68" y="18" font-family="'Segoe UI',Roboto,sans-serif" font-size="12" font-weight="bold" fill="#fff" text-anchor="middle">TS</text>
    <!-- AI sparkle badge -->
    <rect x="96" y="0" width="40" height="26" rx="4" fill="#9B59B6"/>
    <path d="M116 6 L117.5 11 L122 12.5 L117.5 14 L116 19 L114.5 14 L110 12.5 L114.5 11 Z" fill="#fff"/>
  </g>

  <!-- Main title -->
  <text x="80" y="165" font-family="'Segoe UI',Roboto,sans-serif" font-size="54" font-weight="bold" fill="#fff">
    JavaScript AI
  </text>
  <text x="80" y="232" font-family="'Segoe UI',Roboto,sans-serif" font-size="54" font-weight="bold" fill="url(#titleGrad)">
    Build-a-thon
  </text>

  <!-- Subtitle -->
  <text x="80" y="274" font-family="'Segoe UI',Roboto,sans-serif" font-size="19" fill="#bbb">
    Learn. Build. Ship. — From quests to working AI prototypes.
  </text>

  <!-- Phase pills -->
  <g transform="translate(80,296)">
    <!-- Phase 1 pill -->
    <rect x="0" y="0" width="200" height="30" rx="15" fill="#1e1e3f" stroke="#7B68EE" stroke-width="1"/>
    <text x="100" y="20" font-family="'Segoe UI',Roboto,sans-serif" font-size="12" fill="#7B68EE" text-anchor="middle" font-weight="600">Phase 1: Learn &amp; Skill Up</text>
    <!-- Phase 2 pill -->
    <rect x="216" y="0" width="140" height="30" rx="15" fill="#1e1e3f" stroke="#43E97B" stroke-width="1"/>
    <text x="286" y="20" font-family="'Segoe UI',Roboto,sans-serif" font-size="12" fill="#43E97B" text-anchor="middle" font-weight="600">Phase 2: Hack!</text>
  </g>

  <!-- Date -->
  <text x="80" y="362" font-family="'Segoe UI',Roboto,sans-serif" font-size="16" fill="#888">
    March 2 – March 31, 2026
  </text>

  <!-- Hashtag + URL bar at bottom -->
  <rect x="50" y="372" width="360" height="22" rx="4" fill="none"/>
  <text x="50" y="390" font-family="'Segoe UI',Roboto,sans-serif" font-size="12" font-weight="bold" fill="#7B68EE">#JSAIBuildathon</text>
  <text x="189" y="390" font-family="'Segoe UI',Roboto,sans-serif" font-size="12" fill="#666">•  aka.ms/JSAIBuildathon</text>
</svg>
