<svg xmlns="http://www.w3.org/2000/svg" width="1200" height="675" viewBox="0 0 1200 675">
  <defs>
    <linearGradient id="bgGrad" x1="0%" y1="0%" x2="100%" y2="100%">
      <stop offset="0%" style="stop-color:#06061a"/>
      <stop offset="35%" style="stop-color:#0d0d2b"/>
      <stop offset="65%" style="stop-color:#110e30"/>
      <stop offset="100%" style="stop-color:#06061a"/>
    </linearGradient>
    <linearGradient id="titleGrad" x1="0%" y1="0%" x2="100%" y2="0%">
      <stop offset="0%" style="stop-color:#43E97B"/>
      <stop offset="100%" style="stop-color:#F7DF1E"/>
    </linearGradient>
    <linearGradient id="heroGlow" x1="0%" y1="0%" x2="100%" y2="0%">
      <stop offset="0%" style="stop-color:#43E97B"/>
      <stop offset="50%" style="stop-color:#7B68EE"/>
      <stop offset="100%" style="stop-color:#E84393"/>
    </linearGradient>
    <linearGradient id="trackGrad" x1="0%" y1="0%" x2="100%" y2="0%">
      <stop offset="0%" style="stop-color:#43E97B;stop-opacity:0.15"/>
      <stop offset="100%" style="stop-color:#E84393;stop-opacity:0.15"/>
    </linearGradient>
    <linearGradient id="activeTrack" x1="0%" y1="0%" x2="100%" y2="0%">
      <stop offset="0%" style="stop-color:#43E97B"/>
      <stop offset="60%" style="stop-color:#7B68EE"/>
      <stop offset="100%" style="stop-color:#E84393"/>
    </linearGradient>
    <radialGradient id="orbPurple" cx="50%" cy="50%" r="50%">
      <stop offset="0%" style="stop-color:#7B68EE;stop-opacity:0.25"/>
      <stop offset="100%" style="stop-color:#7B68EE;stop-opacity:0"/>
    </radialGradient>
    <radialGradient id="orbGreen" cx="50%" cy="50%" r="50%">
      <stop offset="0%" style="stop-color:#43E97B;stop-opacity:0.15"/>
      <stop offset="100%" style="stop-color:#43E97B;stop-opacity:0"/>
    </radialGradient>
    <radialGradient id="orbPink" cx="50%" cy="50%" r="50%">
      <stop offset="0%" style="stop-color:#E84393;stop-opacity:0.12"/>
      <stop offset="100%" style="stop-color:#E84393;stop-opacity:0"/>
    </radialGradient>
    <linearGradient id="cardGrad" x1="0%" y1="0%" x2="0%" y2="100%">
      <stop offset="0%" style="stop-color:#1a1a3a;stop-opacity:0.95"/>
      <stop offset="100%" style="stop-color:#12122a;stop-opacity:0.95"/>
    </linearGradient>
    <filter id="glow">
      <feGaussianBlur stdDeviation="3" result="coloredBlur"/>
      <feMerge><feMergeNode in="coloredBlur"/><feMergeNode in="SourceGraphic"/></feMerge>
    </filter>
    <pattern id="grid" width="40" height="40" patternUnits="userSpaceOnUse">
      <path d="M 40 0 L 0 0 0 40" fill="none" stroke="#fff" stroke-width="0.5"/>
    </pattern>
  </defs>

  <!-- Background -->
  <rect width="1200" height="675" fill="url(#bgGrad)"/>
  <rect width="1200" height="675" fill="url(#grid)" opacity="0.03"/>

  <!-- Ambient orbs -->
  <circle cx="120" cy="120" r="250" fill="url(#orbGreen)"/>
  <circle cx="600" cy="550" r="220" fill="url(#orbPurple)"/>
  <circle cx="1050" cy="150" r="180" fill="url(#orbPink)"/>

  <!-- === HEADER === -->

  <!-- Microsoft logo -->
  <g transform="translate(60,32)">
    <rect x="0" y="0" width="11" height="11" fill="#F25022"/>
    <rect x="13" y="0" width="11" height="11" fill="#7FBA00"/>
    <rect x="0" y="13" width="11" height="11" fill="#00A4EF"/>
    <rect x="13" y="13" width="11" height="11" fill="#FFB900"/>
    <text x="35" y="19" font-family="'Segoe UI',system-ui,sans-serif" font-size="16" fill="#fff" opacity="0.9">Microsoft</text>
  </g>

  <!-- Branding tagline -->
  <text x="60" y="90" font-family="'Segoe UI',system-ui,sans-serif" font-size="14" fill="#99a" letter-spacing="2" font-weight="400">
    THE JAVASCRIPT AI BUILD-A-THON
  </text>
  <rect x="60" y="100" width="50" height="2" rx="1" fill="url(#heroGlow)" opacity="0.6"/>

  <!-- Title -->
  <text x="60" y="148" font-family="'Segoe UI',system-ui,sans-serif" font-size="46" font-weight="700" fill="#fff" letter-spacing="-0.5">
    Hack
  </text>
  <text x="188" y="148" font-family="'Segoe UI',system-ui,sans-serif" font-size="46" font-weight="800" fill="url(#titleGrad)" letter-spacing="-0.5">
    Roadmap
  </text>

  <!-- Theme subtitle -->
  <text x="60" y="178" font-family="'Segoe UI',system-ui,sans-serif" font-size="16" fill="#5FFFAC" font-weight="500">
    Agents for Impact
  </text>
  <text x="215" y="178" font-family="'Segoe UI',system-ui,sans-serif" font-size="16" fill="#bbc" font-weight="300">
    &#x2014; March 13 &#x2013; April 15, 2026
  </text>

  <!-- Decorative dots (top right) -->
  <rect x="1020" y="20" width="120" height="40" rx="6" fill="#43E97B" opacity="0.06"/>
  <g fill="#43E97B" opacity="0.25">
    <circle cx="1035" cy="32" r="1.8"/><circle cx="1052" cy="32" r="1.8"/><circle cx="1069" cy="32" r="1.8"/><circle cx="1086" cy="32" r="1.8"/><circle cx="1103" cy="32" r="1.8"/><circle cx="1120" cy="32" r="1.8"/>
    <circle cx="1035" cy="48" r="1.8"/><circle cx="1052" cy="48" r="1.8"/><circle cx="1069" cy="48" r="1.8"/><circle cx="1086" cy="48" r="1.8"/><circle cx="1103" cy="48" r="1.8"/><circle cx="1120" cy="48" r="1.8"/>
  </g>

  <!-- JS / TS / AI badges (top right) -->
  <g transform="translate(1020,72)">
    <rect x="0" y="0" width="36" height="22" rx="4" fill="#F7DF1E"/>
    <text x="18" y="16" font-family="'Segoe UI',system-ui,sans-serif" font-size="11" font-weight="bold" fill="#323330" text-anchor="middle">JS</text>
    <rect x="42" y="0" width="36" height="22" rx="4" fill="#3178C6"/>
    <text x="60" y="16" font-family="'Segoe UI',system-ui,sans-serif" font-size="11" font-weight="bold" fill="#fff" text-anchor="middle">TS</text>
    <rect x="84" y="0" width="36" height="22" rx="4" fill="#9B59B6"/>
    <path d="M102 5 L103.2 9 L107 10.2 L103.2 11.4 L102 15.5 L100.8 11.4 L97 10.2 L100.8 9 Z" fill="#fff"/>
  </g>

  <!-- AI sparkles -->
  <g filter="url(#glow)" opacity="0.4">
    <path d="M780 130 L782 138 L790 140 L782 142 L780 150 L778 142 L770 140 L778 138 Z" fill="#43E97B"/>
    <path d="M920 120 L921.5 125 L926 126.5 L921.5 128 L920 133 L918.5 128 L914 126.5 L918.5 125 Z" fill="#E84393"/>
    <path d="M850 155 L851 158.5 L854 159.5 L851 160.5 L850 164 L849 160.5 L846 159.5 L849 158.5 Z" fill="#7B68EE"/>
  </g>

  <!-- Code brackets (decorative) -->
  <g opacity="0.04" font-family="'Courier New',monospace" font-size="80" fill="#fff">
    <text x="700" y="170">{</text>
    <text x="780" y="170">}</text>
  </g>

  <!-- === TIMELINE === -->

  <!-- Phase labels -->
  <g transform="translate(60,210)">
    <rect x="0" y="0" width="220" height="30" rx="15" fill="none" stroke="#43E97B" stroke-width="1.3" opacity="0.8"/>
    <text x="110" y="20" font-family="'Segoe UI',system-ui,sans-serif" font-size="13" fill="#5FFFAC" text-anchor="middle" font-weight="600" letter-spacing="0.5">HACK PHASE: BUILD</text>
  </g>
  <g transform="translate(760,210)">
    <rect x="0" y="0" width="150" height="30" rx="15" fill="none" stroke="#E84393" stroke-width="1.3" opacity="0.8"/>
    <text x="75" y="20" font-family="'Segoe UI',system-ui,sans-serif" font-size="13" fill="#F0A0C0" text-anchor="middle" font-weight="600" letter-spacing="0.5">POST-HACK</text>
  </g>

  <!-- Timeline track -->
  <rect x="80" y="262" width="1040" height="6" rx="3" fill="url(#trackGrad)"/>
  <rect x="80" y="263" width="1040" height="4" rx="2" fill="url(#activeTrack)" opacity="0.6"/>

  <!-- Node 1: March 13 - Hack Launch -->
  <circle cx="120" cy="265" r="16" fill="#0d0d2b" stroke="#43E97B" stroke-width="2.5"/>
  <circle cx="120" cy="265" r="7" fill="#43E97B" filter="url(#glow)"/>

  <!-- Node 2: March 31 - Deadline -->
  <circle cx="690" cy="265" r="14" fill="#0d0d2b" stroke="#F7DF1E" stroke-width="2.5"/>
  <circle cx="690" cy="265" r="6" fill="#F7DF1E" filter="url(#glow)"/>

  <!-- Node 4: April 6-10 - Judging -->
  <circle cx="920" cy="265" r="11" fill="#0d0d2b" stroke="#E84393" stroke-width="2"/>
  <circle cx="920" cy="265" r="5" fill="#E84393"/>

  <!-- Node 5: April 15 - Winners -->
  <circle cx="1080" cy="265" r="14" fill="#0d0d2b" stroke="#E84393" stroke-width="2.5"/>
  <circle cx="1080" cy="265" r="6" fill="#E84393" filter="url(#glow)"/>

  <!-- Date labels -->
  <text x="120" y="298" font-family="'Segoe UI',system-ui,sans-serif" font-size="13" fill="#5FFFAC" text-anchor="middle" font-weight="600">Mar 13</text>
  <text x="120" y="314" font-family="'Segoe UI',system-ui,sans-serif" font-size="10" fill="#99a" text-anchor="middle">Hack Launch</text>

  <text x="690" y="298" font-family="'Segoe UI',system-ui,sans-serif" font-size="13" fill="#F7DF1E" text-anchor="middle" font-weight="600">Mar 31</text>
  <text x="690" y="314" font-family="'Segoe UI',system-ui,sans-serif" font-size="10" fill="#99a" text-anchor="middle">Deadline 11:59 PM</text>

  <text x="920" y="298" font-family="'Segoe UI',system-ui,sans-serif" font-size="13" fill="#bbc" text-anchor="middle" font-weight="500">Apr 6&#x2013;10</text>
  <text x="920" y="314" font-family="'Segoe UI',system-ui,sans-serif" font-size="10" fill="#99a" text-anchor="middle">Judging</text>

  <text x="1080" y="298" font-family="'Segoe UI',system-ui,sans-serif" font-size="13" fill="#F0A0C0" text-anchor="middle" font-weight="600">Apr 15</text>
  <text x="1080" y="314" font-family="'Segoe UI',system-ui,sans-serif" font-size="10" fill="#99a" text-anchor="middle">Winners!</text>

  <!-- Connector lines -->
  <line x1="120" y1="281" x2="170" y2="338" stroke="#43E97B" stroke-width="1" stroke-dasharray="3,3" opacity="0.5"/>
  <line x1="920" y1="276" x2="890" y2="338" stroke="#E84393" stroke-width="1" stroke-dasharray="3,3" opacity="0.5"/>

  <!-- === CARD 1: AZURE DEMO SESSIONS === -->
  <g transform="translate(50,338)">
    <rect x="0" y="0" width="340" height="296" rx="12" fill="url(#cardGrad)" stroke="#0078D4" stroke-width="1" stroke-opacity="0.45"/>

    <!-- Header badge -->
    <rect x="14" y="14" width="120" height="26" rx="5" fill="#0078D4" opacity="0.25"/>
    <text x="74" y="32" font-family="'Segoe UI',system-ui,sans-serif" font-size="12" fill="#5BC0FF" text-anchor="middle" font-weight="700">AZURE DEMOS</text>
    <text x="146" y="32" font-family="'Segoe UI',system-ui,sans-serif" font-size="11" fill="#99a">on Discord</text>

    <!-- Azure icon -->
    <rect x="290" y="16" width="30" height="22" rx="4" fill="#0078D4" opacity="0.15"/>
    <text x="305" y="33" font-family="'Segoe UI',system-ui,sans-serif" font-size="13" fill="#5BC0FF" text-anchor="middle">&#x2601;</text>

    <!-- Demo 1: Azure MCP & Foundry MCP -->
    <g transform="translate(18,58)">
      <rect x="0" y="0" width="52" height="22" rx="4" fill="#43E97B" opacity="0.15"/>
      <text x="26" y="16" font-family="'Segoe UI',system-ui,sans-serif" font-size="11" fill="#5FFFAC" text-anchor="middle" font-weight="600">Mar 16</text>
      <text x="62" y="16" font-family="'Segoe UI',system-ui,sans-serif" font-size="14" fill="#eef" font-weight="600">Azure MCP &amp; Foundry MCP</text>
    </g>
    <g transform="translate(18,86)">
      <text x="62" y="10" font-family="'Segoe UI',system-ui,sans-serif" font-size="11" fill="#99a">MCP servers for Azure &amp; AI Foundry</text>
    </g>

    <!-- Demo 2: Azure Developer CLI -->
    <g transform="translate(18,110)">
      <rect x="0" y="0" width="52" height="22" rx="4" fill="#43E97B" opacity="0.15"/>
      <text x="26" y="16" font-family="'Segoe UI',system-ui,sans-serif" font-size="11" fill="#5FFFAC" text-anchor="middle" font-weight="600">Mar 18</text>
      <text x="62" y="16" font-family="'Segoe UI',system-ui,sans-serif" font-size="14" fill="#eef" font-weight="600">Azure Developer CLI (azd)</text>
    </g>
    <g transform="translate(18,138)">
      <text x="62" y="10" font-family="'Segoe UI',system-ui,sans-serif" font-size="11" fill="#99a">Templates, deploy &amp; manage apps</text>
    </g>

    <!-- Demo 3: Azure Document DB -->
    <g transform="translate(18,162)">
      <rect x="0" y="0" width="52" height="22" rx="4" fill="#43E97B" opacity="0.15"/>
      <text x="26" y="16" font-family="'Segoe UI',system-ui,sans-serif" font-size="11" fill="#5FFFAC" text-anchor="middle" font-weight="600">Mar 20</text>
      <text x="62" y="16" font-family="'Segoe UI',system-ui,sans-serif" font-size="14" fill="#eef" font-weight="600">Azure Document DB</text>
    </g>
    <g transform="translate(18,190)">
      <text x="62" y="10" font-family="'Segoe UI',system-ui,sans-serif" font-size="11" fill="#99a">NoSQL database for AI applications</text>
    </g>

    <!-- Divider -->
    <rect x="18" y="218" width="304" height="1" fill="#0078D4" opacity="0.2"/>

    <!-- Azure tags -->
    <g transform="translate(18,232)">
      <rect x="0" y="0" width="60" height="20" rx="4" fill="#0078D4" opacity="0.2"/>
      <text x="30" y="14" font-family="'Segoe UI',system-ui,sans-serif" font-size="10" fill="#5BC0FF" text-anchor="middle" font-weight="600">AZURE</text>
      <rect x="66" y="0" width="70" height="20" rx="4" fill="#0078D4" opacity="0.2"/>
      <text x="101" y="14" font-family="'Segoe UI',system-ui,sans-serif" font-size="10" fill="#5BC0FF" text-anchor="middle" font-weight="600">FOUNDRY</text>
      <rect x="142" y="0" width="46" height="20" rx="4" fill="#0078D4" opacity="0.2"/>
      <text x="165" y="14" font-family="'Segoe UI',system-ui,sans-serif" font-size="10" fill="#5BC0FF" text-anchor="middle" font-weight="600">MCP</text>
    </g>

    <!-- Footer note -->
    <g transform="translate(18,266)">
      <text x="0" y="14" font-family="'Segoe UI',system-ui,sans-serif" font-size="10" fill="#99a">Mon / Wed / Fri &#x2022; Live on Discord</text>
    </g>
  </g>

  <!-- === CARD 2: GITHUB DEMO SESSIONS === -->
  <g transform="translate(410,338)">
    <rect x="0" y="0" width="340" height="296" rx="12" fill="url(#cardGrad)" stroke="#7B68EE" stroke-width="1" stroke-opacity="0.45"/>

    <!-- Header badge -->
    <rect x="14" y="14" width="130" height="26" rx="5" fill="#7B68EE" opacity="0.25"/>
    <text x="79" y="32" font-family="'Segoe UI',system-ui,sans-serif" font-size="12" fill="#B0A4FF" text-anchor="middle" font-weight="700">GITHUB DEMOS</text>
    <text x="156" y="32" font-family="'Segoe UI',system-ui,sans-serif" font-size="11" fill="#99a">on Discord</text>

    <!-- GitHub Invertocat icon -->
    <g transform="translate(290,16)" opacity="0.5">
      <rect x="0" y="0" width="30" height="22" rx="4" fill="#7B68EE" opacity="0.15"/>
      <path d="M15 4 C10.6 4 7 7.2 7 11.1 C7 14.2 9.1 16.8 12 17.7 C12.4 17.8 12.5 17.5 12.5 17.3 V16 C10.5 16.4 10 15.2 10 15.2 C9.6 14.4 9.1 14.2 9.1 14.2 C8.4 13.7 9.2 13.7 9.2 13.7 C10 13.8 10.4 14.5 10.4 14.5 C11.1 15.6 12.2 15.2 12.6 15 C12.7 14.5 12.9 14.2 13.1 14 C11.5 13.8 9.8 13.2 9.8 10.6 C9.8 9.8 10.1 9.2 10.5 8.7 C10.4 8.5 10 7.8 10.6 6.9 C10.6 6.9 11.2 6.7 12.5 7.5 C13.1 7.3 13.8 7.3 14.5 7.3 C15.2 7.3 15.9 7.3 16.5 7.5 C17.8 6.7 18.4 6.9 18.4 6.9 C19 7.8 18.6 8.5 18.5 8.7 C18.9 9.2 19.2 9.8 19.2 10.6 C19.2 13.2 17.5 13.8 15.9 14 C16.2 14.3 16.5 14.8 16.5 15.6 V17.3 C16.5 17.5 16.6 17.8 17 17.7 C19.9 16.8 22 14.2 22 11.1 C22 7.2 18.4 4 15 4 Z" fill="#B0A4FF"/>
    </g>

    <!-- Demo 4: GitHub Copilot CLI & SDK -->
    <g transform="translate(18,58)">
      <rect x="0" y="0" width="52" height="22" rx="4" fill="#7B68EE" opacity="0.15"/>
      <text x="26" y="16" font-family="'Segoe UI',system-ui,sans-serif" font-size="11" fill="#B0A4FF" text-anchor="middle" font-weight="600">Mar 23</text>
      <text x="62" y="16" font-family="'Segoe UI',system-ui,sans-serif" font-size="14" fill="#eef" font-weight="600">GitHub Copilot CLI &amp; SDK</text>
    </g>
    <g transform="translate(18,86)">
      <text x="62" y="10" font-family="'Segoe UI',system-ui,sans-serif" font-size="11" fill="#99a">CLI tools &amp; SDK integration</text>
    </g>

    <!-- Demo 5: GitHub Agentic Workflows -->
    <g transform="translate(18,110)">
      <rect x="0" y="0" width="52" height="22" rx="4" fill="#7B68EE" opacity="0.15"/>
      <text x="26" y="16" font-family="'Segoe UI',system-ui,sans-serif" font-size="11" fill="#B0A4FF" text-anchor="middle" font-weight="600">Mar 25</text>
      <text x="62" y="16" font-family="'Segoe UI',system-ui,sans-serif" font-size="14" fill="#eef" font-weight="600">GitHub Agentic Workflows</text>
    </g>
    <g transform="translate(18,138)">
      <text x="62" y="10" font-family="'Segoe UI',system-ui,sans-serif" font-size="11" fill="#99a">Orchestrate AI agent pipelines</text>
    </g>

    <!-- Demo 6: GitHub Copilot App Modernization -->
    <g transform="translate(18,162)">
      <rect x="0" y="0" width="52" height="22" rx="4" fill="#7B68EE" opacity="0.15"/>
      <text x="26" y="16" font-family="'Segoe UI',system-ui,sans-serif" font-size="11" fill="#B0A4FF" text-anchor="middle" font-weight="600">Mar 27</text>
      <text x="62" y="16" font-family="'Segoe UI',system-ui,sans-serif" font-size="14" fill="#eef" font-weight="600">Copilot App Modernization</text>
    </g>
    <g transform="translate(18,190)">
      <text x="62" y="10" font-family="'Segoe UI',system-ui,sans-serif" font-size="11" fill="#99a">Modernize legacy codebases with AI</text>
    </g>

    <!-- Divider -->
    <rect x="18" y="218" width="304" height="1" fill="#7B68EE" opacity="0.2"/>

    <!-- GitHub tags -->
    <g transform="translate(18,232)">
      <rect x="0" y="0" width="70" height="20" rx="4" fill="#7B68EE" opacity="0.2"/>
      <text x="35" y="14" font-family="'Segoe UI',system-ui,sans-serif" font-size="10" fill="#B0A4FF" text-anchor="middle" font-weight="600">COPILOT</text>
      <rect x="76" y="0" width="66" height="20" rx="4" fill="#7B68EE" opacity="0.2"/>
      <text x="109" y="14" font-family="'Segoe UI',system-ui,sans-serif" font-size="10" fill="#B0A4FF" text-anchor="middle" font-weight="600">AGENTS</text>
      <rect x="148" y="0" width="82" height="20" rx="4" fill="#7B68EE" opacity="0.2"/>
      <text x="189" y="14" font-family="'Segoe UI',system-ui,sans-serif" font-size="10" fill="#B0A4FF" text-anchor="middle" font-weight="600">WORKFLOWS</text>
    </g>

    <!-- Footer note -->
    <g transform="translate(18,266)">
      <text x="0" y="14" font-family="'Segoe UI',system-ui,sans-serif" font-size="10" fill="#99a">Mon / Wed / Fri &#x2022; Live on Discord</text>
    </g>
  </g>

  <!-- === CARD 3: KEY MILESTONES === -->
  <g transform="translate(770,338)">
    <rect x="0" y="0" width="370" height="296" rx="12" fill="url(#cardGrad)" stroke="#E84393" stroke-width="1" stroke-opacity="0.35"/>

    <!-- Header badge -->
    <rect x="14" y="14" width="138" height="26" rx="5" fill="#E84393" opacity="0.2"/>
    <text x="83" y="32" font-family="'Segoe UI',system-ui,sans-serif" font-size="12" fill="#F0A0C0" text-anchor="middle" font-weight="700">KEY MILESTONES</text>

    <!-- Milestone 1: Registration Opens -->
    <g transform="translate(20,58)">
      <circle cx="8" cy="8" r="6" fill="#43E97B" opacity="0.3"/>
      <circle cx="8" cy="8" r="3" fill="#43E97B"/>
      <text x="24" y="6" font-family="'Segoe UI',system-ui,sans-serif" font-size="11" fill="#5FFFAC" font-weight="600">Mar 13</text>
      <text x="82" y="6" font-family="'Segoe UI',system-ui,sans-serif" font-size="13" fill="#eef" font-weight="500">Registration Opens</text>
      <text x="24" y="22" font-family="'Segoe UI',system-ui,sans-serif" font-size="10" fill="#99a">Hack launches &#x2014; start building!</text>
    </g>

    <!-- Milestone 2: Submission Deadline -->
    <g transform="translate(20,100)">
      <circle cx="8" cy="8" r="6" fill="#F7DF1E" opacity="0.3"/>
      <circle cx="8" cy="8" r="3" fill="#F7DF1E"/>
      <text x="24" y="6" font-family="'Segoe UI',system-ui,sans-serif" font-size="11" fill="#F7DF1E" font-weight="600">Mar 31</text>
      <text x="82" y="6" font-family="'Segoe UI',system-ui,sans-serif" font-size="13" fill="#eef" font-weight="500">Submission Deadline</text>
      <text x="24" y="22" font-family="'Segoe UI',system-ui,sans-serif" font-size="10" fill="#99a">11:59 PM PST &#x2014; final submissions</text>
    </g>

    <!-- Divider -->
    <rect x="20" y="182" width="330" height="1" fill="#E84393" opacity="0.2"/>

    <!-- Milestone 4: Judging -->
    <g transform="translate(20,200)">
      <circle cx="8" cy="8" r="6" fill="#E84393" opacity="0.3"/>
      <circle cx="8" cy="8" r="3" fill="#E84393"/>
      <text x="24" y="6" font-family="'Segoe UI',system-ui,sans-serif" font-size="11" fill="#F0A0C0" font-weight="600">Apr 6 &#x2013; 10</text>
      <text x="106" y="6" font-family="'Segoe UI',system-ui,sans-serif" font-size="13" fill="#eef" font-weight="500">Judging Period</text>
      <text x="24" y="22" font-family="'Segoe UI',system-ui,sans-serif" font-size="10" fill="#99a">Expert panel reviews submissions</text>
    </g>

    <!-- Milestone 5: Winners -->
    <g transform="translate(20,242)">
      <circle cx="8" cy="8" r="6" fill="#E84393" opacity="0.3"/>
      <circle cx="8" cy="8" r="3" fill="#E84393"/>
      <text x="24" y="6" font-family="'Segoe UI',system-ui,sans-serif" font-size="11" fill="#F0A0C0" font-weight="600">Apr 15</text>
      <text x="82" y="6" font-family="'Segoe UI',system-ui,sans-serif" font-size="13" fill="#eef" font-weight="500">Winners Announced &#x1F3C6;</text>
      <text x="24" y="22" font-family="'Segoe UI',system-ui,sans-serif" font-size="10" fill="#99a">Prizes &amp; recognition</text>
    </g>
  </g>

  <!-- Bottom branding -->
  <text x="60" y="660" font-family="'Segoe UI',system-ui,sans-serif" font-size="13" font-weight="700" fill="#5FFFAC">#JSAIBuildathon</text>
  <text x="190" y="660" font-family="'Segoe UI',system-ui,sans-serif" font-size="13" fill="#99a">&#x2022; aka.ms/JSAIBuildathon &#x2022; Free &amp; Open Source</text>
</svg>